<?xml version="1.0" encoding="utf-8"?>
<!-- Generator: Adobe Illustrator 19.0.0, SVG Export Plug-In . SVG Version: 6.00 Build 0)  -->
<svg version="1.1" id="Layer_1" xmlns="http://www.w3.org/2000/svg" xmlns:xlink="http://www.w3.org/1999/xlink" x="0px" y="0px"
	 viewBox="0 0 500 500" style="enable-background:new 0 0 500 500;" xml:space="preserve">
<style type="text/css">
	.st0{fill:#211C1E;}
	.st1{fill:#B1946C;}
</style>
<g id="XMLID_1_">
	<path id="XMLID_5_" class="st0" d="M90.7,199.7H98c10.6,0,16.1,4.8,16.1,13.7c0,9.9-5.3,14.5-16.2,14.5h-7.2V199.7z M67.5,192.7
		v5.3h2c6.1,0,7.8,2.5,7.8,9.1v44.8c0,6.6-1.7,9.1-7.8,9.1h-2v5.3c5.5-0.2,10.9-0.2,16.5-0.2c5.5,0,11.1,0,16.6,0.2v-5.3h-1.9
		c-6.3,0-7.9-2.4-7.9-9.1v-17.5h9.9c17.9,0,26.6-6.2,26.6-20.8c0-14.4-9.4-20.9-28.7-20.9H67.5"/>
	<path id="XMLID_6_" class="st0" d="M144.3,207.6c4.2,0,8.4-0.1,12.5-0.2v4.2h-1.6c-5.3,0-6.2,1.8-6.2,7.3v26c0,11,3.4,16,13.6,16
		c10.1,0,13.5-5,13.5-15.8v-25.9c0-5.7-1-7.6-6.6-7.6h-1.5v-4.2c4.1,0.1,8.1,0.2,12,0.2c3.8,0,7.7-0.1,11.4-0.2v4.2h-1.7
		c-4.1,0-5.3,2.2-5.3,7.3v25.7c0,16-6.5,23.1-22.8,23.1c-15.3,0-23.2-7.4-23.2-21.7v-27c0-5-1.1-7.3-5.3-7.3h-1.5v-4.2
		C135.8,207.5,140,207.6,144.3,207.6"/>
	<path id="XMLID_9_" class="st0" d="M215.3,213.1h6.1c9,0,13.1,3.3,13.1,11c0,7.5-4.7,10.4-14.4,10.4h-4.8V213.1z M196.7,207.4v4.2
		h1.5c4.9,0,6.3,2,6.3,7.3v35.8c0,5.4-1.3,7.3-6.3,7.3h-1.5v4.2c4.4-0.2,8.7-0.2,13.1-0.2c4.4,0,8.9,0,13.3,0.2v-4.2h-1.6
		c-4.9,0-6.2-1.9-6.2-7.3v-15.2h5.4c8,0,9.8,2.3,12,8.7c1.1,3.2,1.6,9.6,4.8,18.1h15.9v-4.2c-0.3,0-0.7,0-1,0
		c-4.9,0-6.5-2.9-8.2-9.5c-2.3-9.2-2.9-14.5-10.3-15.8c6.9-1.8,10.8-6.9,10.8-13.7c0-11.1-7.5-15.7-23.3-15.7H196.7"/>
	<path id="XMLID_12_" class="st0" d="M275.2,213h6.7c16.2,0,23.9,7.1,23.9,23.1c0,16.8-7.5,24.6-23.4,24.6h-7.2V213z M256.7,207.4
		v4.2h1.5c4.9,0,6.3,2,6.3,7.3v35.8c0,5.3-1.4,7.3-6.3,7.3h-1.5v4.2h28.2c21.8,0,32.5-9.8,32.5-30.2c0-19.5-11.2-28.7-34-28.7H256.7
		"/>
	<path id="XMLID_13_" class="st0" d="M332.4,207.6c4.2,0,8.4-0.1,12.5-0.2v4.2h-1.6c-5.3,0-6.2,1.8-6.2,7.3v26c0,11,3.4,16,13.6,16
		c10.1,0,13.5-5,13.5-15.8v-25.9c0-5.7-1.1-7.6-6.6-7.6h-1.5v-4.2c4.1,0.1,8.1,0.2,12,0.2c3.8,0,7.7-0.1,11.4-0.2v4.2h-1.7
		c-4.1,0-5.3,2.2-5.3,7.3v25.7c0,16-6.5,23.1-22.8,23.1c-15.3,0-23.2-7.4-23.2-21.7v-27c0-5-1.1-7.3-5.3-7.3h-1.5v-4.2
		C324,207.5,328.2,207.6,332.4,207.6"/>
	<path id="XMLID_14_" class="st0" d="M432,207.7v15.4h-4.9c0-0.6,0-1,0-1.5c0-7.5-2.1-8.1-9.8-8.1h-13.9v19.9h4.5
		c7.3,0,8.9-0.5,8.9-7.9h4.4v21h-4.3c-0.1-7.2-1.8-7.9-8.8-7.9h-4.7v21.9h13.5c9,0,10.6-1.2,10.7-11.7h4.8v17.6h-48v-4.2h2
		c5.1,0,6.2-2,6.2-7.3V219c0-5.3-1.2-7.3-6.2-7.3h-1.6v-3.9H432"/>
	<path id="XMLID_15_" class="st1" d="M74.4,287.7c1.4,0,2.8,0,4.2-0.1v1.7h-0.4c-1.7,0-2,0.6-2,2.4v8.5c0,3,1,4.4,3.9,4.4
		c2.9,0,4.1-1.4,4.1-4.5v-8.4c0-1.7-0.4-2.4-2-2.4h-0.4v-1.7c1.3,0,2.6,0.1,3.9,0.1c1.3,0,2.6,0,3.8-0.1v1.7H89
		c-1.1,0-1.6,0.8-1.6,2.4v8.1c0,5.1-2.1,7.5-7.7,7.5c-5.2,0-7.7-2.2-7.7-6.7v-8.9c0-1.6-0.3-2.4-1.5-2.4h-0.4v-1.7
		C71.5,287.6,73,287.7,74.4,287.7"/>
	<path id="XMLID_16_" class="st1" d="M119.2,287.6l7.4,15.8l-0.1-11.7c0-1.7-0.4-2.4-2-2.4h-0.4v-1.7c1.4,0,2.7,0.1,4,0.1
		c1.4,0,2.8,0,4.1-0.1v1.7h-0.4c-1.6,0-2,0.7-2,2.4v15.1h-5.3l-7.4-15.7l0.1,11.6c0,1.7,0.4,2.5,2,2.5h0.4v1.7
		c-1.3-0.1-2.7-0.1-4.1-0.1c-1.3,0-2.7,0-4.1,0.1v-1.7h0.4c1.6,0,2-0.7,2-2.5v-11c0-1.7-0.4-2.4-2-2.4h-0.4v-1.7H119.2"/>
	<path id="XMLID_17_" class="st1" d="M159.1,287.7c1.5,0,3,0,4.5-0.1v1.7h-0.4c-1.6,0-2,0.7-2,2.4v11c0,1.7,0.4,2.5,2,2.5h0.4v1.7
		c-1.5-0.1-3-0.1-4.5-0.1c-1.5,0-3,0-4.5,0.1v-1.7h0.4c1.6,0,2-0.7,2-2.5v-11c0-1.7-0.4-2.4-2-2.4h-0.4v-1.7
		C156,287.6,157.6,287.7,159.1,287.7"/>
	<path id="XMLID_18_" class="st1" d="M188.6,287.7c1.3,0,2.9,0,4.7-0.1v1.7c-1.6,0.1-2.3,0.2-2.3,1c0,0.2,0.1,0.5,0.2,0.8l4.2,12.3
		l4.1-12.2c0.1-0.3,0.1-0.6,0.1-0.8c0-0.8-0.7-1.1-2.2-1.1v-1.7c1.5,0,2.9,0.1,4.2,0.1c1.3,0,2.5,0,3.6-0.1v1.7
		c-1.1,0.2-1.6,0.8-2,2l-5.6,15.9H193l-5.8-15.8c-0.5-1.4-0.9-2-2-2.1v-1.7C186.1,287.6,187.3,287.7,188.6,287.7"/>
	<path id="XMLID_19_" class="st1" d="M242.4,287.7v5.3h-1.8v-0.8c0-1.8-1-2.2-3.4-2.2h-3.9v6h1.1c2.1,0,2.6-0.4,2.6-2.5h1.7v7h-1.7
		c-0.1-2.1-0.6-2.4-2.5-2.4h-1.2v6.7h3.5c3.1,0,3.8-0.4,3.9-3.8h1.8v6h-15.8v-1.7h0.4c1.7,0,2-0.8,2-2.5v-11c0-1.7-0.4-2.4-2-2.4
		h-0.4v-1.6H242.4"/>
	<path id="XMLID_22_" class="st1" d="M271.9,289.9h1.6c2.6,0,3.8,0.9,3.8,3.3c0,2.3-1.3,3.1-4,3.1h-1.4V289.9z M265.3,287.6v1.6h0.4
		c1.6,0,2,0.7,2,2.5v11c0,1.7-0.4,2.5-2,2.5h-0.4v1.7c1.5-0.1,3-0.1,4.5-0.1c1.5,0,3,0,4.5,0.1v-1.7h-0.4c-1.6,0-2-0.7-2-2.5v-4.4
		h1.5c1.7,0,2.7,0.5,3.1,1.7c0.6,1.7,0.7,4.1,1.9,6.7h5.8v-1.7c-0.1,0-0.1,0-0.1,0c-0.9,0-1.5-0.2-2-0.8c-0.6-0.7-0.8-2.1-1.3-4
		c-0.5-2-1-2.9-2.7-3.2c2.2-0.5,3.4-2.1,3.4-4.4c0-3.8-2.6-5.2-8.1-5.2H265.3"/>
	<path id="XMLID_23_" class="st1" d="M320.1,293.4h-2.4c0-0.2,0-0.4,0-0.6c0-2.4-1.2-3.5-3.8-3.5c-2.3,0-3.7,1.2-3.7,2.8
		c0,1.3,0.8,2.1,2.4,2.8l4,1.6c2.7,1.1,4.1,2.8,4.1,5.1c0,3.6-2.7,5.7-7.8,5.7c-2.2,0-4.6-0.3-6.9-0.8V301h2.3c0,0.2,0,0.3,0,0.4
		c0,2.5,1.5,3.7,4.4,3.7c2.4,0,3.6-1,3.6-2.9c0-1.3-0.6-2-2.2-2.7l-3.7-1.6c-3.1-1.3-4.6-2.7-4.6-5.2c0-3.5,2.7-5.6,7.6-5.6
		c2,0,4.2,0.3,6.5,0.9V293.4"/>
	<path id="XMLID_24_" class="st1" d="M347.9,287.7c1.5,0,3,0,4.5-0.1v1.7H352c-1.6,0-2,0.7-2,2.4v11c0,1.7,0.4,2.5,2,2.5h0.4v1.7
		c-1.5-0.1-3-0.1-4.5-0.1c-1.5,0-3,0-4.5,0.1v-1.7h0.4c1.6,0,2-0.7,2-2.5v-11c0-1.7-0.4-2.4-2-2.4h-0.4v-1.7
		C344.9,287.6,346.4,287.7,347.9,287.7"/>
	<path id="XMLID_25_" class="st1" d="M380.4,287.7h5.3c0.6,0,2.7-0.1,6-0.1v5.8h-2.1c0-0.2,0-0.3,0-0.5c0-2.5-0.7-3-3-3h-1.4v12.8
		c0,1.7,0.4,2.5,2,2.5h0.7v1.7c-1.6-0.1-3.2-0.1-4.8-0.1c-1.6,0-3.2,0-4.8,0.1v-1.7h0.7c1.6,0,2-0.7,2-2.5v-12.8h-1.7
		c-2.1,0-2.8,0.6-2.8,2.7c0,0.3,0,0.5,0,0.8h-2v-5.8C377.8,287.6,379.7,287.7,380.4,287.7"/>
	<path id="XMLID_26_" class="st1" d="M417,287.7c1.3,0,2.8,0,4.2-0.1v1.7c-0.1,0-0.1,0-0.2,0c-1,0-1.4,0.3-1.4,0.9
		c0,0.3,0.1,0.7,0.4,1.1l2.4,5l2.4-4.8c0.2-0.4,0.4-0.9,0.4-1.2c0-0.7-0.5-1-1.5-1v-1.7c1.3,0,2.6,0.1,3.9,0.1c1.3,0,2.5,0,3.8-0.1
		v1.7c0,0-0.1,0-0.1,0c-1,0-1.6,0.7-2.4,2.1l-4.7,7.7v3.9c0,1.7,0.3,2.2,2.1,2.2h0.4v1.7c-1.5-0.1-3-0.1-4.5-0.1c-1.5,0-3,0-4.6,0.1
		v-1.7h0.4c1.8,0,2.1-0.6,2.1-2.2v-4l-4.4-7.6c-0.8-1.3-1.4-2-2.7-2.1v-1.7C414.4,287.6,415.7,287.7,417,287.7"/>
	<rect id="XMLID_27_" x="68" y="274.2" class="st1" width="364.5" height="3.5"/>
</g>
</svg>
